<!DOCTYPE svg PUBLIC "-//W3C//DTD SVG 1.1//EN" "http://www.w3.org/Graphics/SVG/1.1/DTD/svg11.dtd">
<svg height="150" width="150" stroke-miterlimit="10" style="fill-rule:nonzero;clip-rule:evenodd;stroke-linecap:round;stroke-linejoin:round;" version="1.1" viewBox="0 0 1024 1024" width="100%" xml:space="preserve" xmlns="http://www.w3.org/2000/svg" xmlns:vectornator="http://vectornator.io" xmlns:xlink="http://www.w3.org/1999/xlink">
<defs/>
<g id="圖層1" vectornator:layerName="圖層1">
<path d="M394.443 761.812C378.584 752.517 362.749 743.178 346.855 733.942C335.966 727.614 324.993 721.431 313.463 714.896C312.09 714.231 311.313 713.854 310.31 713.258C308.177 712.011 306.27 710.982 304.19 709.727C303.495 709.305 302.972 709.109 302.45 708.912C292.687 703.206 282.925 697.5 272.816 691.666C263.849 686.508 255.439 681.052 246.527 676.604C240.978 673.835 239.611 670.039 239.648 664.379C239.783 643.883 239.522 623.384 239.521 602.885C239.516 522.225 239.631 441.564 239.413 360.904C239.396 354.975 241.562 351.976 246.332 349.233C275.929 332.211 305.395 314.96 334.917 297.807C392.655 264.259 450.409 230.742 508.118 197.144C511.309 195.287 513.702 195.234 517.105 197.216C574.23 230.499 631.431 263.653 688.696 296.693C712.785 310.592 737.068 324.153 761.246 337.897C763.382 339.111 765.393 340.546 768.325 342.434C761.19 346.305 754.812 349.733 748.464 353.214C735.473 360.338 722.488 367.472 709.526 374.646C706.824 376.142 704.648 376.818 701.402 374.953C651.866 346.496 602.205 318.255 552.585 289.944C540.433 283.011 528.281 276.078 516.215 268.998C513.137 267.192 510.655 267.223 507.501 269.048C458.492 297.41 409.406 325.639 360.354 353.928C341.454 364.828 322.555 375.733 303.801 386.88C302.305 387.769 301.171 390.568 301.167 392.482C301.049 454.476 301.089 516.471 301.107 578.466C301.112 595.797 301.251 613.13 301.029 630.458C300.979 634.342 302.274 636.433 305.562 638.34C343.596 660.401 381.518 682.656 419.534 704.747C448.475 721.565 477.536 738.175 506.468 755.008C510.27 757.221 513.223 757.626 517.36 755.219C557.093 732.111 596.974 709.255 636.829 686.355C663.831 670.84 690.808 655.28 717.93 639.978C722.116 637.616 723.571 634.948 723.532 630.181C723.306 602.518 723.423 574.853 723.424 547.188C723.424 545.221 723.424 543.254 723.424 540.527C662.648 540.527 602.433 540.527 541.818 540.527C541.818 519.671 541.818 499.592 541.818 479.101C622.403 479.101 702.971 479.101 784.377 479.101C784.377 481.498 784.373 483.913 784.377 486.328C784.489 547.156 784.628 607.984 784.576 668.812C784.575 670.59 782.982 673.081 781.404 674.029C768.844 681.578 756.108 688.834 743.183 696.437C732.802 702.496 722.664 708.299 712.352 714.405C712.178 714.707 712.275 714.695 711.964 714.735C711.479 715.105 711.305 715.436 711.115 715.733C711.099 715.699 711.026 715.685 711.026 715.685C708.068 717.068 704.992 718.245 702.17 719.866C673.606 736.278 645.084 752.763 616.433 769.563C616.316 769.899 616.221 769.749 616.221 769.749C607.831 774.429 599.387 779.013 591.063 783.806C565.603 798.466 540.211 813.244 514.697 827.81C513.384 828.559 510.936 828.295 509.454 827.587C505.273 825.591 501.32 823.118 496.828 820.882C496.38 820.932 496.57 820.739 496.57 820.739C487.731 815.535 478.892 810.331 469.532 804.824C468.479 804.288 467.947 804.056 467.415 803.824C460.102 799.524 452.788 795.225 444.905 790.574C439.35 787.454 434.364 784.686 429.379 781.918C418.608 775.655 407.838 769.393 396.531 762.838C395.477 762.301 394.96 762.056 394.443 761.812Z" fill="#ffffff" fill-rule="nonzero" opacity="1" stroke="none" vectornator:layerName="path"/>
<path d="M392.859 378.937C431.957 356.361 470.73 333.957 509.583 311.69C510.945 310.91 513.498 310.79 514.812 311.548C563.416 339.588 611.941 367.767 660.47 395.938C661.457 396.511 662.366 397.22 663.957 398.307C660.741 400.198 657.95 401.85 655.149 403.485C639.474 412.633 623.733 421.673 608.17 431.008C604.843 433.004 602.42 432.83 599.158 430.965C571.835 415.347 544.377 399.963 517.056 384.343C513.479 382.298 510.801 382.094 507.07 384.281C472.739 404.403 438.316 424.368 403.782 444.139C399.812 446.412 398.965 448.91 398.989 453.212C399.213 493.199 399.206 533.188 399.091 573.176C399.081 576.687 400.248 578.441 403.23 580.155C438.169 600.228 473.037 620.425 507.852 640.712C510.685 642.362 512.768 642.354 515.59 640.722C541.819 625.547 568.118 610.493 594.452 595.5C596.253 594.475 598.495 593.704 600.535 593.696C627.86 593.597 655.185 593.65 682.511 593.689C683.644 593.691 684.777 593.928 686.388 594.109C686.388 600.228 686.558 606.184 686.243 612.115C686.181 613.29 684.45 614.701 683.165 615.44C647.368 636.026 611.508 656.503 575.705 677.079C555.781 688.528 535.895 700.045 516.111 711.734C513.231 713.435 511.298 713.323 508.491 711.68C479.901 694.934 451.279 678.238 422.54 661.749C395.97 646.504 369.267 631.489 342.557 616.492C339.632 614.85 338.262 613.142 338.269 609.547C338.394 544.898 338.394 480.248 338.284 415.599C338.278 411.812 339.315 409.617 342.728 407.703C359.425 398.341 375.957 388.684 392.859 378.937Z" fill="#ffffff" fill-rule="nonzero" opacity="1" stroke="none" vectornator:layerName="path 1"/>
</g>
</svg>
