<?xml version="1.0" standalone="no"?>
<!DOCTYPE svg PUBLIC "-//W3C//DTD SVG 20010904//EN"
 "http://www.w3.org/TR/2001/REC-SVG-20010904/DTD/svg10.dtd">
<svg version="1.0" xmlns="http://www.w3.org/2000/svg"
 width="32.000000pt" height="32.000000pt" viewBox="0 0 32.000000 32.000000"
 preserveAspectRatio="xMidYMid meet">
<metadata>
Created by potrace 1.14, written by Peter Selinger 2001-2017
</metadata>
<g transform="translate(0.000000,32.000000) scale(0.100000,-0.100000)"
fill="#000000" stroke="none">
<path d="M5015 8231 c-44 -26 -134 -79 -200 -118 -143 -83 -293 -170 -635
-368 -140 -82 -265 -153 -277 -159 -13 -6 -23 -14 -23 -18 0 -5 -4 -8 -9 -8
-6 0 -87 -45 -182 -101 -95 -55 -191 -111 -213 -123 -44 -25 -593 -344 -741
-431 -49 -29 -139 -81 -198 -115 -60 -35 -116 -75 -125 -89 -16 -23 -17 -144
-16 -1586 0 -1426 2 -1563 17 -1591 10 -20 39 -43 84 -68 37 -20 91 -50 118
-66 28 -17 57 -33 65 -37 8 -4 17 -9 20 -12 3 -3 16 -12 29 -19 13 -8 40 -23
60 -34 20 -11 77 -44 126 -73 94 -55 120 -70 232 -132 37 -20 105 -58 151 -85
46 -26 88 -48 93 -48 5 0 9 -4 9 -10 0 -5 5 -10 10 -10 9 0 288 -159 315 -180
11 -8 250 -146 325 -188 25 -13 81 -46 125 -72 44 -26 130 -76 190 -110 61
-34 124 -70 140 -80 104 -60 227 -131 270 -157 154 -91 327 -183 346 -183 12
0 94 42 182 92 89 51 173 100 188 108 15 8 58 33 96 55 37 22 84 49 104 60 19
11 129 74 245 139 183 105 713 410 754 435 53 33 353 203 390 221 25 12 51 28
59 34 7 6 38 25 67 41 224 125 617 361 627 376 11 14 13 204 11 966 -1 521 -2
951 -3 956 0 4 -545 7 -1211 7 l-1210 0 0 -308 0 -307 898 0 c493 1 902 0 907
-2 6 -2 10 -168 10 -473 l-1 -470 -24 -24 c-14 -13 -45 -35 -70 -48 -37 -21
-134 -76 -265 -150 -11 -6 -285 -164 -610 -351 -324 -187 -608 -350 -630 -362
-22 -13 -121 -70 -220 -127 -277 -161 -279 -162 -306 -155 -13 3 -91 45 -174
93 -82 47 -168 97 -190 109 -22 13 -123 71 -225 130 -102 59 -205 119 -230
133 -25 14 -78 45 -118 69 -41 24 -76 43 -79 43 -4 0 -21 11 -39 25 -18 14
-36 25 -40 25 -4 0 -40 20 -80 45 -39 25 -74 45 -77 45 -2 0 -45 24 -94 54
-49 29 -109 64 -133 78 -42 24 -237 138 -270 158 -8 5 -82 48 -165 96 -82 47
-158 95 -167 106 -17 19 -18 92 -18 1227 0 663 3 1216 6 1229 5 16 53 50 173
121 160 95 549 320 601 348 14 8 41 23 60 35 45 27 345 200 390 226 19 11 62
35 95 54 59 35 172 100 237 137 18 10 143 82 277 160 145 83 255 141 270 141
14 0 46 -12 71 -26 77 -45 95 -55 490 -281 212 -121 405 -232 430 -246 25 -14
180 -102 345 -197 165 -95 323 -185 350 -200 28 -15 86 -48 129 -74 44 -26 92
-50 107 -53 21 -4 69 19 225 105 110 60 240 131 289 157 139 74 134 67 78 102
-26 17 -174 102 -328 189 -154 87 -435 247 -625 357 -190 110 -361 208 -380
219 -19 11 -39 24 -45 28 -5 4 -35 21 -65 37 -30 17 -277 159 -548 317 -336
195 -501 286 -520 285 -15 0 -63 -22 -107 -48z"/>
<path d="M5100 7123 c-8 -3 -84 -46 -168 -94 -84 -49 -157 -89 -163 -89 -5 0
-9 -4 -9 -10 0 -5 -4 -10 -9 -10 -5 0 -155 -84 -333 -187 -177 -102 -336 -194
-353 -203 -16 -10 -145 -84 -285 -165 -140 -81 -275 -159 -300 -172 -25 -13
-56 -32 -70 -43 l-25 -19 -1 -1001 c0 -705 3 -1007 10 -1023 6 -12 25 -29 41
-37 17 -9 41 -23 55 -32 14 -8 50 -29 80 -45 84 -46 625 -353 803 -456 18 -10
191 -111 385 -224 269 -156 358 -204 376 -199 12 3 96 48 185 101 89 52 345
200 569 329 224 128 468 268 542 311 74 43 153 88 175 100 22 13 69 39 105 60
36 21 84 49 108 62 28 16 42 32 43 46 6 92 3 169 -5 174 -14 9 -824 10 -866 1
-27 -5 -456 -241 -560 -307 -8 -5 -79 -46 -158 -91 -103 -59 -150 -80 -166
-76 -12 3 -155 83 -317 177 -162 94 -314 183 -339 197 -218 122 -428 248 -442
264 -17 19 -18 65 -18 654 l0 633 23 25 c12 13 112 76 222 139 293 168 457
263 568 329 55 32 100 58 102 58 2 0 44 25 94 55 50 30 102 55 117 55 30 0 45
-8 480 -256 427 -243 429 -244 456 -236 19 6 116 61 298 171 19 11 42 24 50
28 8 4 43 24 78 45 34 21 66 38 71 38 5 0 11 3 13 8 2 4 16 15 33 24 16 9 31
20 32 25 3 8 -50 42 -187 119 -30 17 -176 102 -325 189 -148 86 -295 171 -325
187 -30 17 -59 34 -65 38 -5 4 -26 17 -45 28 -19 10 -109 62 -200 114 -91 53
-181 104 -200 115 -19 11 -59 34 -88 52 -53 31 -64 34 -92 24z"/>
</g>
</svg>
