<svg xmlns="http://www.w3.org/2000/svg" x="0px" y="0px" width="32" height="32" viewBox="0,0,256,256"
style="fill:#000000;">
<g fill="#ffffff" fill-rule="nonzero" stroke="none" stroke-width="1" stroke-linecap="butt" stroke-linejoin="miter" stroke-miterlimit="10" stroke-dasharray="" stroke-dashoffset="0" font-family="none" font-weight="none" font-size="none" text-anchor="none" style="mix-blend-mode: normal"><g transform="scale(3.55556,3.55556)"><path d="M19,13c-4.963,0 -9,4.038 -9,9v27c0,0.217 0.0172,0.43153 0.0332,0.64453l5.46289,-14.0625c1.79,-4.606 6.14003,-7.58203 11.08203,-7.58203h33.41016c0.685,0 1.35472,0.0867 2.01172,0.2207v-2.2207c0,-4.962 -4.037,-9 -9,-9h-20.24609c-0.227,0 -0.44609,-0.0768 -0.62109,-0.2168l-2.26367,-1.80859c-1.589,-1.273 -3.58605,-1.97461 -5.62305,-1.97461zM26.57813,32c-3.279,0 -6.16552,1.97525 -7.35352,5.03125l-6.96094,17.91602c1.651,1.867 4.05433,3.05273 6.73633,3.05273h34.1875c3.323,0 6.25003,-2.00156 7.45703,-5.10156l4.94727,-12.72461c0.717,-1.847 0.47837,-3.9265 -0.64062,-5.5625c-0.181,-0.265 -2.06489,-2.61133 -4.96289,-2.61133z"></path></g></g>
</svg>