<svg xmlns="http://www.w3.org/2000/svg" x="0px" y="0px" width="32" height="32" viewBox="0,0,256,256"
style="fill:#000000;">
<g fill="#ffffff" fill-rule="nonzero" stroke="none" stroke-width="1" stroke-linecap="butt" stroke-linejoin="miter" stroke-miterlimit="10" stroke-dasharray="" stroke-dashoffset="0" font-family="none" font-weight="none" font-size="none" text-anchor="none" style="mix-blend-mode: normal"><g transform="scale(3.55556,3.55556)"><path d="M59.566,27.912c5.129,2.754 8.434,8.142 8.434,14.088c0,8.822 -7.178,16 -16,16h-33c-8.271,0 -15,-6.729 -15,-15c0,-4.97 2.416,-9.516 6.424,-12.298c1.424,-5.526 6.26,-9.535 12.152,-9.698c0.244,-0.007 0.489,-0.007 0.736,0c3.664,-5.551 9.929,-9.004 16.688,-9.004c9.493,0 17.657,6.815 19.566,15.912zM41.41,37c1.323,0 2.065,-1.523 1.25,-2.565l-4.41,-5.636c-0.635,-0.812 -1.865,-0.812 -2.5,0l-4.41,5.636c-0.815,1.042 -0.073,2.565 1.25,2.565h2.41c0,2.036 0,6.536 0,7c0,1.105 0.896,2 2,2c1.104,0 2,-0.895 2,-2c0,-0.464 0,-4.964 0,-7z"></path></g></g>
</svg>