<svg xmlns="http://www.w3.org/2000/svg" x="0px" y="0px" width="32" height="32" viewBox="0,0,256,256"
style="fill:#000000;">
<g fill="#ffffff" fill-rule="nonzero" stroke="none" stroke-width="1" stroke-linecap="butt" stroke-linejoin="miter" stroke-miterlimit="10" stroke-dasharray="" stroke-dashoffset="0" font-family="none" font-weight="none" font-size="none" text-anchor="none" style="mix-blend-mode: normal"><g transform="scale(5.33333,5.33333)"><path d="M13.5,4c-3.033,0 -5.5,2.467 -5.5,5.5v26.5v1.5v1c0,3.01977 2.48023,5.5 5.5,5.5h26c0.54095,0.00765 1.04412,-0.27656 1.31683,-0.74381c0.27271,-0.46725 0.27271,-1.04514 0,-1.51238c-0.27271,-0.46725 -0.77588,-0.75146 -1.31683,-0.74381h-26c-1.22676,0 -2.22276,-0.84765 -2.44922,-2h28.44922c0.829,0 1.5,-0.671 1.5,-1.5v-28c0,-3.033 -2.467,-5.5 -5.5,-5.5h-0.5v16.5c0,0.529 -0.27938,1.01906 -0.73437,1.28906c-0.236,0.14 -0.50062,0.21094 -0.76562,0.21094c-0.247,0 -0.49475,-0.06159 -0.71875,-0.18359l-4.78125,-2.60937l-4.78125,2.60938c-0.464,0.254 -1.02737,0.24366 -1.48437,-0.02734c-0.455,-0.269 -0.73437,-0.76006 -0.73437,-1.28906v-16.5zM24,4v13.97266l3.28125,-1.78906c0.223,-0.122 0.47175,-0.18359 0.71875,-0.18359c0.247,0 0.49575,0.06159 0.71875,0.18359l3.28125,1.78906v-13.97266z"></path></g></g>
</svg>