<svg xmlns="http://www.w3.org/2000/svg" x="0px" y="0px" width="32" height="32" viewBox="0,0,256,256"
style="fill:#000000;">
<g fill="#ffffff" fill-rule="nonzero" stroke="none" stroke-width="1" stroke-linecap="butt" stroke-linejoin="miter" stroke-miterlimit="10" stroke-dasharray="" stroke-dashoffset="0" font-family="none" font-weight="none" font-size="none" text-anchor="none" style="mix-blend-mode: normal"><g transform="scale(3.55556,3.55556)"><path d="M49,24c-0.601,0 -13.399,0 -14,0c-1.104,0 -2,0.895 -2,2c0,1.105 0.896,2 2,2c0.601,0 13.399,0 14,0c1.104,0 2,-0.895 2,-2c0,-1.105 -0.896,-2 -2,-2zM49,31c-0.601,0 -13.399,0 -14,0c-1.104,0 -2,0.895 -2,2c0,1.105 0.896,2 2,2c0.601,0 13.399,0 14,0c1.104,0 2,-0.895 2,-2c0,-1.105 -0.896,-2 -2,-2zM49,38c-0.601,0 -1.399,0 -2,0c-1.104,0 -2,0.895 -2,2c0,1.105 0.896,2 2,2c0.601,0 1.399,0 2,0c1.104,0 2,-0.895 2,-2c0,-1.105 -0.896,-2 -2,-2zM49,45c-0.601,0 -1.399,0 -2,0c-1.104,0 -2,0.895 -2,2c0,1.105 0.896,2 2,2c0.601,0 1.399,0 2,0c1.104,0 2,-0.895 2,-2c0,-1.105 -0.896,-2 -2,-2zM40,38h-5c-1.104,0 -2,0.895 -2,2v7c0,1.105 0.896,2 2,2h5c1.104,0 2,-0.895 2,-2v-7c0,-1.105 -0.896,-2 -2,-2zM57,12c3.314,0 6,2.686 6,6v32c0,5.523 -4.477,10 -10,10h-33.083c0.685,-1.178 1.083,-2.542 1.083,-4v-38c0,-3.314 2.686,-6 6,-6zM17,25v31c0,2.206 -1.794,4 -4,4c-2.206,0 -4,-1.794 -4,-4v-25c0,-3.314 2.686,-6 6,-6z"></path></g></g>
</svg>